<svg xmlns="http://www.w3.org/2000/svg" viewBox="0 0 900 900"><style>.st4{fill:#f5b828}.st5{fill:#070403}</style><circle class="st4" cx="451" cy="450" r="444"/><circle cx="463" cy="450" r="432.1" fill="#fff"/><path class="st5" d="M456.6 594.3v-49.9c0-7.5 2.6-10.6 8.8-10.6 5.8 0 8.8 3.4 8.8 10.7.1 12.4.3 24.9-.1 37.3-.2 5.7.9 8.1 7.4 7.8 13.3-.6 26.6-.3 39.9-.1 4.2 0 8.4.4 12.6 1.2 10.8 2.1 16.7 8.6 17.2 19.7.5 11.7.5 23.5.1 35.3-.4 12.4-6.7 19.5-19 20.9-18.8 2.1-37.7 2.1-56.5 0-12.8-1.5-19-9.3-19.1-22.2-.2-16.8-.1-33.4-.1-50.1zm45.1 11.7v-.4c-7.1 0-14.2.3-21.3-.1-4.8-.3-6.6.9-6.4 6.1.5 10.2.4 20.4.1 30.6-.2 6 2.4 8.6 8.1 8.6 15.1 0 30.1.1 45.2.2 4.6 0 6.8-2.1 6.8-6.9-.1-10-.2-19.9 0-29.9.1-5.6-2.6-8.2-7.9-8.2h-24.6zm-287.8 27.9c0-7.5-.1-15.1 0-22.6.3-12.6 5.9-20 18.3-21.4 14-1.7 28.3-3 42.1 2.1 1.5.6 2.9.7 4.5.1 14-5.2 28.5-3.7 42.8-2.3 12.6 1.2 18.9 8.7 19.1 21.4.3 15.8.1 31.5 0 47.3 0 6-3.5 9.4-8.9 9.3-5.9-.2-8.6-3-8.7-9.3-.1-14.2.1-28.4-.1-42.6-.1-9-1.4-10.3-10.5-10.5-6.2-.1-12.4.2-18.6.1-6.3-.1-8.7 3-8.6 9 .1 14.7 0 29.3.1 44 0 4-1.3 7-5 8.6-3.6 1.5-6.9 1-10-1.4-2.6-2-2.8-4.8-2.8-7.8 0-14 .1-28 0-42 0-9.2-1.1-10.2-10.4-10.5-6-.2-12 .2-18 .2-5.6 0-8 2.7-7.9 8.2.1 14.4.1 28.9 0 43.3 0 7.5-2.7 10.8-8.6 10.8-6.3 0-8.9-3.2-9-11.1.2-7.8.2-15.4.2-22.9zM399 667.1c-9.3.5-18.6 1-27.9-.3-12.9-1.8-19.2-8.8-19.4-21.8-.2-10.9-.2-21.7 0-32.6.2-13.2 6-20.5 19.2-22 18.3-2.1 36.8-1.8 55.1-.2 13.6 1.2 19.6 9.2 19.7 23 .1 10.2.1 20.4 0 30.6-.1 14.9-6.5 22.1-21.4 23.2-8.4.6-16.9.1-25.3.1zm-.5-16.4v.1h22.6c4.4 0 6.5-2.1 6.4-6.5v-31.9c0-4-1.6-6.3-5.8-6.5-15.3-.5-30.6-.7-45.8.1-4.7.3-6.4 2.8-6.4 7.4.2 10.2.2 20.4 0 30.6-.1 4.5 1.9 6.6 6.3 6.6 7.7.1 15.2.1 22.7.1zm272.6-13.1c-10 0-20-.1-29.9.1-2 0-5.4-1.9-5.9 2-.5 3.7-.7 7.7 3.9 9.5 3.8 1.5 7.8 1.7 11.8 1.8 4.7.1 9.3-.1 14 .1 4.5.1 6.9 2.7 7.2 7.1.4 4.4-1 8.6-5.8 9-13.3 1.2-26.6 1.5-38.8-5.3-6-3.3-9.4-8.7-9.9-15.6-.8-12.2-1-24.4.1-36.5 1-11 6.4-16.6 17.2-19 9.6-2.1 19.4-1.1 29.2-1.2 8.9-.1 17.8-.3 26.6.1 15.5.8 21.4 7.2 21.5 22.6 0 5.5.1 11.1 0 16.6-.1 5.9-3 9-9.1 8.9-5.3-.1-10.6 0-16 0-5.4-.2-10.7-.2-16.1-.2zm-6.3-16.9H690c1.5 0 3.7.6 4.1-1.1.8-3.9 1.2-8.1-.2-11.8-1.1-2.9-4.6-2.1-7.1-2.1-11.9-.1-23.9-.1-35.8 0-3.7 0-7.6 0-11.2.7-7 1.3-4.2 7.2-4.6 11.3-.4 4.7 3.5 2.9 5.7 3 8 .1 15.9 0 23.9 0zM589.9 600v-54.6c0-8.2 2.5-11.7 8.4-11.6 5.8 0 8.6 3.6 8.6 11.8.1 30.9 0 61.7 0 92.6 0 6.4.1 12.9-.1 19.3-.2 7.1-3.1 10.3-8.7 10.3-5.7-.1-8.3-3.3-8.3-10.4.1-19.3.1-38.3.1-57.4zm-11 27.2c0 10 .1 19.9 0 29.9-.1 6.9-3 10.5-8.3 10.5-5.3 0-8.3-3.5-8.3-10.5-.1-19.9-.1-39.8 0-59.8 0-7.2 2.8-10.4 8.4-10.3 5.7.1 8.3 3.2 8.3 10.3 0 10-.1 20-.1 29.9zm-8.2-43.8c-6 .1-8.2-3-8.2-8.3.1-5.5 3.2-8 8.3-7.9 5.2.1 8.1 3.2 7.9 8.5-.1 5.1-2.9 8.1-8 7.7z"/><path class="st4" d="M459.7 522.9 318.2 381.4c-1.8-1.8-1.8-4.8 0-6.6l141.5-141.5c1.8-1.8 4.8-1.8 6.6 0l141.5 141.5c1.8 1.8 1.8 4.8 0 6.6L466.3 522.9c-1.8 1.9-4.8 1.9-6.6 0z"/><path class="st5" d="M564.2 377.7c.2 6.9-3.1 12.2-7.9 16.9-23.9 23.8-47.7 47.7-71.6 71.5-3.3 3.3-6.4 6.8-9.9 9.8-8.6 7.2-20.5 7-28.5-.9-25.7-25.4-51.4-51-76.7-76.7-8.8-8.9-7.9-21.7 1.6-31.6 10.8-11.1 22-22 32.9-33 16.8-16.8 33.6-33.6 50.3-50.4 4.1-4.1 8.7-7 14.8-5.9 5.9 1.1 10.4 4.3 12 10.2 1.7 6.2.4 11.7-4.4 16.5-17.8 17.7-35.5 35.4-53.2 53.1L403.8 377c-5.3 5.4-5.4 7.6-.3 12.7 17.3 17.3 34.7 34.3 51.8 51.7 4.2 4.2 7.5 3.8 11.2 0 19.9-20 39.7-39.9 59.7-59.8 3.1-3.1 3.6-5.2-.1-8.4-4.9-4.2-9.3-8.9-13.7-13.6-2.1-2.3-3.6-2.6-5.8 0-2.3 2.7-4.9 5.2-7.7 7.3-6.9 5.3-15.4 4.5-20.9-1.7-5.1-5.8-5-14.5.7-20.6 5.2-5.5 10.5-10.9 16-16 8.6-7.9 21.2-8 29.6 0 11.5 11.1 22.8 22.4 33.9 33.8 4.3 4.2 6.2 9.4 6 15.3z"/></svg>