<svg xmlns="http://www.w3.org/2000/svg" viewBox="0 0 900 900"><style>.st0{fill:#d61921}.st2{fill:#c6c7c9}</style><circle class="st0" cx="451" cy="450" r="444"/><circle cx="463" cy="450" r="432.1" fill="#fff"/><path class="st0" d="M717.5 342.8c10.5-3.5 20.4-2 30.4 2 15.5 6.5 26.9 18 35.9 31.9 7 11 12 22.9 13 35.9.5 7.5-.5 15-4.5 21.9-18 30.9-35.9 61.8-53.9 92.8 0 .5-.5 1-1 1 0-2 1-4 1.5-5.5 3-9.5 4-19 1-28.4-3-9.5-9-16-16.5-21.9-8.5-7-18.5-12-27.9-17-10.5-6-21.4-11.5-29.4-21.4 3.5-16.5 8.5-32.4 15.5-47.4 6-12.5 13-24.4 22.9-34.4 3.5-3.5 7.5-6 12-9 .5 0 1 0 1-.5z"/><path class="st2" d="M716.5 343.3c-4 3-8 5.5-12 9-10 10-17 21.9-22.9 34.4-7 15-12 30.9-15.5 47.4-3 12-4.5 24.4-5 36.9-.5 7.5 0 14.5 0 21.9.5 6 1 12 2 18 2 12 5.5 22.9 11.5 33.9-1 .5-1-.5-1.5-1-10.5-17-20.9-34.4-31.9-51.4-8-13.5-16.5-26.4-24.9-39.9-7-11-13-22.4-15.5-34.9-2-9.5-2-19 2.5-27.9 3-6 7.5-9.5 13.5-11.5 18.5-6.5 36.9-12.5 55.9-19 14-5 28.4-10 42.4-14.5.4-1.4.9-1.4 1.4-1.4z"/><path d="M674.6 544.3c-6-10.5-9.5-21.9-11.5-33.9-1-6-1.5-12-2-18 1 0 2 .5 3 1 25.4 12 50.9 13 76.3.5 3 9.5 2 19-1 28.4-.5 2-1.5 3.5-1.5 5.5-.5 0-.5.5-.5 1-5 9.5-10 18.5-19 24.9-13 8.5-29.4 7-39.9-4.5-1.4-.9-2.4-3.4-3.9-4.9z" fill="#020202"/><path d="M516.6 430.6c5-6.5 11-10.5 19.4-12 10-1.5 17 5 17 15 0 12-.5 23.9.5 35.9 0 2 .5 4 .5 6 0 1.5 0 2-1.5 2h-8c-2 0-2-.5-2-2v-26.9c0-4.5 0-9-.5-13-1.5-4.5-4-6.5-8.5-7-3.5 0-6.5.5-10 2-4.5 2-7 4.5-7 10.5.5 12-.5 23.4 1.5 35.4 0 1.5 0 1.5-1.5 1.5h-10c-2 0-1.5-1.5-1.5-2v-35.4c0-9-4-13-13-12-1.5 0-3.5.5-4.5 1.5-6.5 2.5-8.5 5-8.5 12.5.5 11-.5 21.9.5 33.4 0 1.5 0 2-1.5 2-3.5 0-7 1.5-9-.5-2-1.5-.5-6-.5-9 0-10 0-19.4.5-29.9 0-3.5 0-6-1.5-9-.5-2-1.5-3.5-2.5-4-3.5-2.5-3.5-3.5.5-5 2-.5 4-1.5 6-1.5 6 0 7 1.5 8 7 0 .5-.5 2.5.5 2.5s1.5-1.5 2-1.5c5-5 11-8.5 18.5-8.5 7.6-.5 13.1 3.5 16.1 12zm-36-1c0-.5 0-.5 0 0h-.5.5zm-300.7 9.9v-33.4c0-8 0-8-8-8-2.5 0-6 0-8.5.5-3.5.5-6 2-7 5 0 .5-.5 2-1.5 1.5-.5 0-.5-1.5-.5-2v-6c.5-6 2-6.5 7-6.5 17 1.5 34.4 1.5 51.4 0 2 0 3.5.5 4 2.5 1.5 3.5 1.5 7 .5 10.5 0 .5 0 1.5-.5 1.5s-.5 0-1.5-.5c-2-5-6.5-6-12-6h-8.5c-2.5 0-3.5.5-3.5 3.5 0 6.5-.5 12.5-.5 19 0 18.5-.5 36.4.5 54.4 0 2-.5 2-2 2h-8.5c-2 0-2.5-.5-2.5-2.5 1.6-12 1.1-23.5 1.6-35.5zm278.8 7c0 20.9-19 35.4-38.4 29.9-10.5-2.5-15-10.5-17-20.4-3.5-14.5 2.5-27.9 15-33.9 17-8.5 40.4-1 40.4 24.4zm-13 4c0-8.5-2-17-8.5-22.9-6.5-6.5-15-4.5-19 3.5-2.5 5-3.5 10.5-2.5 15.5.5 8.5 2 16.5 8 21.9 5 6 12.5 5 17-1.5 3.5-4.5 4-10.5 5-16.5zm-105.2 10c0 4.5-1.5 8-4 10.5-8.5 8-24.9 10-34.4 4-8-4.5-11-12.5-11-20.9-.5-11 2-20.9 10-28.9 8-7 20.4-8.5 28.9-2.5 6 4 8.5 9 9 16.5v.5c.5 6.5 0 7-6.5 7-9 0-18.5 0-26.9-.5-2.5 0-3.5.5-3.5 3.5s0 5 1.5 8c3.5 10.5 13 15 24.9 12.5 3.5-3.2 8-5.2 12-9.7zM315.1 442c0-.5 0-.5 0 0 3.5-.5 7-.5 10.5-.5 1.5 0 2-.5 2-2 0-3.5-1.5-6.5-2.5-10-4-7-13.5-7-18.5 0-2 3.5-3.5 7-4 10.5-.5 2 0 2 2 2 3.5-.5 6.5 0 10.5 0zm-56.9 18.5c0 4.5-1.5 8-4 10.5-9 9-27.4 10-37.9 2-5-4-7-10-8-15.5-1.5-11 .5-20.9 8-29.4s20.9-11 30.4-5c6.5 4 9 10.5 9 17.5 0 5 0 6-6 6-8.5 0-17 0-25.4-.5-6 0-6-.5-6 5 .5 13.5 12 21.4 25.4 17.5 7-1.1 11.5-3.6 14.5-8.1zM233.8 442c0-.5 0-.5 0 0 3.5-.5 6.5-.5 10.5-.5 2 0 2.5-.5 2-2 0-3.5-1.5-7-3.5-10-4.5-6.5-13.5-6.5-17.5 0-2 3.5-3.5 7-4 10.5-.5 2 0 2.5 2 2 3-.5 7 0 10.5 0zm162.1 17c1.5 4 0 7-2 10-7 8-16.5 10.5-26.9 8-10-2-15.5-8.5-17.5-19-2-12-.5-21.9 8-31.4 8.5-10.5 23.9-10 32.4-6 2 .5 3.5 2 4 3.5 1.5 2 2 4.5 0 7-1.5 2.5-4 2.5-6.5 2-1.5 0-2-.5-2.5-2-2.5-6.5-11-9-17-4.5-6 5-8 11-8.5 18.5-.5 6.5.5 12.5 4.5 17.5 6.5 8.5 17.5 9 26.9 2 2.1-1.6 3.1-3.6 5.1-5.6zm-115.2-21.9c-.5 13-.5 25.4.5 38.4 0 2-.5 2-2 2h-10c-1.5 0-1.5-.5-1.5-2 0-15.5 0-31.4.5-46.4v-21.9c0-4-1.5-8-4.5-11-1.5-1.5-.5-1.5 0-2 3.5-2 7-2.5 10.5-2.5 3.5.5 5 2 6 6 1.5 6 0 12 0 17.5.5 6.9.5 14.4.5 21.9zm-133.2 8.4c0 9-1 18.5 0 27.9.5 4 .5 4-3.5 4h-9c-1.5 0-2-.5-2-2 .5-9.5.5-19.4 1-28.9 0-6 1-12 0-18.5-.5-1.5-1-4-1.5-5s-1.5-1.5-2-1.5c-1.5-.5-1.5-1.5-1.5-2.5 0-1.5.5-2.5 2-3.5 2.5-1.5 5.5-2 8.5-2 6-.5 9 2 9 8.5s-.5 13-.5 19.4c-.5.6-.5 2.1-.5 4.1zm-.5-48.8c0 4.5-4 8.5-8 8.5-4.5 0-8.5-4-8.5-8 0-4.5 3.5-8 8.5-8 4.5 0 8 4 8 7.5z" style="fill:#060606"/><path class="st0" d="M737 529.8c0-.5 0-1 .5-1s.5.5-.5 1z"/><path class="st2" d="M717.5 342.8c0 .5-.5.5-1 .5.5-.5 1-.5 1-.5z"/><path d="M480.6 429.6c-.5.5-.5 0-.5 0s.5-.5.5 0c0-.5 0-.5 0 0z" fill="#fefefe"/></svg>