<svg xmlns="http://www.w3.org/2000/svg" viewBox="0 0 900 900"><style>.st9{fill:#134a9f}.st12{fill:#e12728}</style><circle class="st9" cx="451" cy="450" r="444"/><circle cx="463" cy="450" r="432.1" fill="#fff"/><path class="st9" d="M130.8 431.1H143v6.5c2-2.4 4.7-4.2 8.1-5.4 3.4-1.2 9.1-1.8 17-1.8 10.6 0 18.2.8 23 2.4 4.8 1.6 8.1 4.1 10 7.4 1.6-3.2 4.6-5.6 9.1-7.3 4.5-1.7 11.4-2.5 20.7-2.5 8.8 0 15.5.6 20 1.7 4.5 1.2 8.1 3.3 11 6.3 2.1 2.4 3.5 5.1 4.1 8 .6 2.9 1 8.1 1 15.6v34.2h-12.1v-36.6c0-7.7-1.1-12.7-3.3-14.9-3-2.9-9.9-4.3-20.7-4.3-6.3 0-11.1.4-14.3 1.2-3.2.8-5.6 2.2-7.2 4-1.7 2-2.8 4.6-3.4 8s-.9 8.9-.9 16.7v25.8H193v-36.6c0-4.5-.2-7.8-.7-9.9-.5-2.1-1.3-3.7-2.6-4.8-3-3-10-4.4-20.8-4.4-6.4 0-11.2.4-14.5 1.2-3.3.8-5.8 2.2-7.6 4.2-1.5 1.7-2.5 4.2-3.1 7.3-.5 3.1-.8 8.8-.8 17.2v25.8h-12.1v-65zm185.5-.8c10.1 0 17.6.3 22.5.9 4.9.6 8.7 1.7 11.5 3.4 4.3 2.6 7.3 6.2 9.1 10.7 1.8 4.5 2.8 10.7 2.8 18.4 0 8.6-1.1 15.1-3.3 19.6-1.6 3.5-3.8 6.2-6.5 8.1-2.7 2-6.3 3.4-10.8 4.3-4.2.9-11.2 1.3-20.8 1.3-9.1 0-16-.3-20.7-.9-4.7-.6-8.6-1.7-11.6-3.4-4.4-2.4-7.6-5.8-9.5-10.4-1.9-4.6-2.8-10.9-2.8-19 0-9.1 1.3-15.9 4-20.6 2.8-4.9 6.6-8.2 11.6-9.9 4.9-1.6 13.1-2.4 24.5-2.5zm1.7 10.3c-6.6 0-11.6.2-14.9.7-3.3.5-5.8 1.3-7.7 2.5-2.2 1.4-3.8 3.8-4.9 7-1.1 3.2-1.6 7.6-1.6 13.3 0 6.4.7 11.1 2.1 14.2 1.4 3.1 3.7 5.2 6.9 6.5 3.7 1.4 11.1 2.2 22.1 2.2 7.2 0 12.4-.3 15.7-.8 3.3-.5 5.9-1.5 7.8-2.9 2.1-1.5 3.6-3.7 4.6-6.8.9-3 1.4-7.4 1.4-13 0-6.7-.7-11.5-2.2-14.6-1.6-3.3-4.3-5.5-8.1-6.6-3.8-1.2-10.9-1.7-21.2-1.7zm54.3-37.4h12.1v35.6h-1c2.2-3.3 5.3-5.6 9.2-6.7 4-1.2 10.5-1.7 19.7-1.7 10.6 0 18.2.3 22.8 1 4.5.7 8.3 2.1 11.3 4.2 3.7 2.6 6.3 6 7.9 9.9 1.7 4.5 2.6 10.8 2.6 19.1 0 9.1-1.4 16-4.1 20.6-3.7 6.2-10.3 9.9-19.9 11.2-3.9.5-10.2.7-18.8.7-10.3 0-17.5-.6-21.5-1.7-4-1.2-7.2-3.6-9.5-7.2h1.1v8.1h-12v-93.1zm40.2 37.4c-6.6 0-11.5.3-14.8.8-3.3.5-5.8 1.4-7.6 2.7-2.2 1.5-3.8 3.8-4.7 6.8-.9 3-1.4 7.4-1.4 13 0 7.5.8 12.7 2.4 15.5 1.7 3 4.6 5.1 8.5 6.1 3.9 1 11.5 1.5 22.7 1.5 5.8 0 10.2-.3 13.2-.8 3-.6 5.6-1.6 7.7-3 1.9-1.3 3.3-3.5 4.2-6.5.9-3 1.4-7.2 1.4-12.6 0-7.3-.8-12.5-2.5-15.6-1.7-3.1-4.4-5.2-8.1-6.3-3.6-1.1-10.6-1.6-21-1.6z"/><path class="st12" d="M467 407.8h12.1v13.3H467z"/><path class="st9" d="M467 431.1h12.1v65.1H467z"/><path class="st12" d="M482.1 431.1h9.5c.2-5.9.6-10.3 1.2-13 .6-2.8 1.8-5.2 3.6-7.3 2.3-2.6 5.4-4.5 9.1-5.5 3.8-1.1 9.7-1.7 17.7-2l13.8-.4-14 10.4c-5.2.2-9 .5-11.2 1-2.3.5-4 1.4-5.2 2.7-1 1.1-1.7 2.6-2.1 4.3s-.6 5-.7 9.8H536l-11.8 9.9h-20.4v55.2h-12.1V441h-9.5v-9.9z"/><path class="st12" d="M565.6 430.3c10.1 0 17.6.3 22.5.9 4.9.6 8.7 1.7 11.5 3.4 4.3 2.6 7.3 6.2 9.1 10.7 1.8 4.5 2.8 10.7 2.8 18.4 0 8.6-1.1 15.1-3.3 19.6-1.6 3.5-3.8 6.2-6.5 8.1-2.7 2-6.3 3.4-10.8 4.3-4.2.9-11.2 1.3-20.8 1.3-9.1 0-16-.3-20.7-.9-4.7-.6-8.6-1.7-11.6-3.4-4.4-2.4-7.6-5.8-9.5-10.4-1.9-4.6-2.8-10.9-2.8-19 0-9.1 1.3-15.9 4-20.6 2.8-4.9 6.6-8.2 11.6-9.9 4.9-1.6 13.1-2.4 24.5-2.5zm1.6 10.3c-6.6 0-11.6.2-14.9.7-3.3.5-5.8 1.3-7.7 2.5-2.2 1.4-3.8 3.8-4.9 7-1.1 3.2-1.6 7.6-1.6 13.3 0 6.4.7 11.1 2.1 14.2 1.4 3.1 3.7 5.2 6.9 6.5 3.7 1.4 11.1 2.2 22.1 2.2 7.2 0 12.4-.3 15.7-.8 3.3-.5 5.9-1.5 7.8-2.9 2.1-1.5 3.6-3.7 4.6-6.8.9-3 1.4-7.4 1.4-13 0-6.7-.7-11.5-2.2-14.6-1.6-3.3-4.3-5.5-8.1-6.6-3.8-1.2-10.8-1.7-21.2-1.7zm53.9-9.5h12.1v9.6h-.9c2.1-3.9 5.4-6.7 10-8.2 4.6-1.5 12.2-2.3 22.9-2.3 9.2 0 16.1.5 20.7 1.6 4.6 1.1 8.2 3 10.9 5.7 2 2.2 3.4 4.9 4.2 8.1.8 3.2 1.2 7.8 1.2 13.8v36.7h-12.1v-32.4c0-5.7-.2-9.7-.7-12.2-.5-2.4-1.4-4.4-2.7-6.1-1.6-1.8-4-3.1-7.4-3.9-3.3-.8-8.5-1.2-15.4-1.2-7.7 0-13.6.5-17.8 1.6-4.2 1.1-7.3 2.9-9.4 5.3-1.4 1.8-2.4 3.9-2.9 6.2-.5 2.3-.7 6.4-.7 12.4V496H621v-64.9zm161.5 44.1h12.5c-.2 8.2-3 13.9-8.4 17.1-5.4 3.2-14.7 4.7-27.8 4.7-10.7 0-18.9-.4-24.6-1.3-5.7-.9-10-2.3-13-4.4-6.6-4.7-9.9-13.9-9.9-27.6 0-9.5 1.4-16.7 4.2-21.5 2.7-4.7 6.6-7.9 11.7-9.5 5.1-1.7 13.5-2.5 25.1-2.5 11.1 0 19.1.6 24.2 1.8 5.1 1.2 9.1 3.5 12.2 7 2.5 2.9 4.2 6.2 5.1 9.9.9 3.7 1.4 9.6 1.5 17.6h-71.1c.3 7.4 1.8 12.5 4.6 15.3 1.7 1.8 4.7 3.1 8.7 3.8 4.1.7 10.8 1.1 20.3 1.1 7.1 0 12.3-.3 15.5-1 3.2-.6 5.5-1.8 7-3.4 1-1.1 1.8-3.5 2.2-7.1zm-.6-18.5c0-5.6-1.6-9.6-4.7-12-2-1.5-4.9-2.6-8.6-3.2-3.7-.6-9.3-.9-16.7-.9-6.5 0-11.3.3-14.6.9-3.3.6-5.8 1.6-7.6 3-3 2.4-4.7 6.5-5.2 12.3H782z"/></svg>