<svg xmlns="http://www.w3.org/2000/svg" viewBox="0 0 900 900"><style>.st7{fill:#ea8932}.st8{fill:#8a9298}</style><circle class="st7" cx="451" cy="450" r="444"/><circle cx="463" cy="450" r="432.1" fill="#fff"/><path class="st7" d="M447.8 302.1c2.6.8 5.3 1.1 8 2 14.4 4.9 24.5 18.5 25.3 33.6.5 9.3-1.7 17.8-6.4 25.8-21.7 36.8-43.5 73.6-65.2 110.4-6.7 11.3-13.1 22.9-20.2 34-8.5 13.4-20.9 20.8-37.1 20.7-10.3-.1-19.1-4.2-26.7-11.2 0-.3-.1-.5-.4-.6l-.4-.4c0-.2-.1-.4-.4-.4 0-.3-.1-.4-.4-.4.1-.7-.5-1-.8-1.5-5.5-7.2-8.1-15.5-8.1-24.4 0-7.8 2.1-15 6.1-21.8 7.5-12.8 15.1-25.6 22.6-38.4 3.2-5.4 6.3-10.9 9.5-16.3.4-.7.9-1.3 1.3-2 17.2-29.2 34.4-58.4 51.7-87.6 6.1-10.3 15-17 26.5-20.2 1.9-.5 3.9-1 5.9-1.4 3.2.1 6.2.1 9.2.1zm108.4 0c3.4.8 6.8 1.3 10 2.7 13.3 5.7 20.9 15.8 23.2 29.9 1.6 10.2-.6 19.6-5.8 28.4-28.3 47.9-56.5 95.8-84.9 143.7-7 11.8-17.3 18.8-30.9 21.2-20.3 3.6-39.9-10.3-43.4-30.7-1.7-10.3-.1-20 5.2-28.9 20.1-34.2 40.3-68.4 60.5-102.6 8.1-13.7 16.2-27.4 24.3-41.2 7.3-12.4 18-20 32.4-22.2.2 0 .4-.2.6-.4 3 .1 5.9.1 8.8.1zm110.3 0c2.8.7 5.7 1 8.4 2 14.3 5.2 22.8 15.5 25 30.4 1.5 10.1-.4 19.8-5.8 28.9-25.4 42.9-50.7 85.8-76.1 128.7-3.9 6.6-7.3 13.5-12 19.5-8.7 11.1-20.2 17-34.3 17.1-18.9.2-35.1-14.6-37.1-33.5-1-9.7.9-18.7 5.8-27.1 28.2-47.9 56.5-95.8 84.8-143.7 7.3-12.3 18-19.7 32.2-21.8.2 0 .4-.2.7-.3 2.9-.2 5.6-.2 8.4-.2z"/><path class="st8" d="M353.4 413.3c-3.2 5.4-6.3 10.9-9.5 16.3-7.5 12.8-15.1 25.6-22.6 38.4-4 6.7-6.1 14-6.1 21.8 0 9 2.6 17.2 8.1 24.4.3.5.9.8.8 1.5-1.9-.7-2.8-2.5-3.9-4-4.9-6.6-8.6-13.8-12.8-20.9-21.4-36.2-42.8-72.4-64.2-108.7-3.9-6.6-7.8-13.3-11.7-19.9-3-5.1-4.9-10.6-5.5-16.5 0-.3-.2-.6-.3-.9v-7.9c.4-.4.3-.8.4-1.3 2.1-14.6 9.7-25.1 23.4-30.9 3.3-1.4 6.8-1.8 10.2-2.6h8.3c.2.1.4.3.6.4 14.1 2.1 24.8 9.4 32.1 21.6 9.6 16 19 32.1 28.4 48.1 8 13.7 16.1 27.4 24.3 41.1zM243 597l-17.2-53.6h13.3l6.5 22.7c1.8 6.4 3.5 12.5 4.8 19.2h.2c1.3-6.4 3-12.8 4.8-18.9l6.8-22.9h12.9l-18 53.6H243zm47.9-49.7c0 3.3-2.5 6-6.5 6-3.8 0-6.4-2.7-6.3-6-.1-3.5 2.5-6.1 6.4-6.1 3.8 0 6.3 2.6 6.4 6.1zM278.4 597v-38.9h12.1V597h-12.1zm31.1-15.6c.4 5 5.3 7.4 11 7.4 4.1 0 7.5-.6 10.7-1.6l1.6 8.2c-4 1.6-8.8 2.4-14.1 2.4-13.2 0-20.7-7.6-20.7-19.8 0-9.9 6.1-20.7 19.6-20.7 12.6 0 17.3 9.8 17.3 19.4 0 2.1-.2 3.9-.4 4.8h-25zm14.2-8.2c0-2.9-1.3-7.9-6.8-7.9-5.1 0-7.2 4.6-7.5 7.9h14.3zm32-26.2v11.1h8.7v8.9h-8.7v14.1c0 4.7 1.1 6.8 4.8 6.8 1.5 0 2.7-.2 3.6-.3l.1 9.1c-1.6.6-4.5 1-7.9 1-3.9 0-7.2-1.4-9.1-3.3-2.2-2.3-3.3-6-3.3-11.5V567h-5.2v-8.9h5.2v-8.4l11.8-2.7zm15.7 23.5c0-4.9-.2-9-.3-12.4h10.5l.6 5.3h.2c1.6-2.5 5.6-6.2 12-6.2 7.9 0 13.9 5.2 13.9 16.7v23h-12.1v-21.5c0-5-1.8-8.4-6.1-8.4-3.3 0-5.3 2.3-6.1 4.5-.3.7-.5 1.9-.5 3V597h-12.1v-26.5zm68.7 26.5-.7-3.9h-.2c-2.5 3.1-6.5 4.8-11.1 4.8-7.9 0-12.6-5.7-12.6-11.9 0-10.1 9.1-14.9 22.8-14.9v-.6c0-2.1-1.1-5-7.1-5-4 0-8.2 1.4-10.7 2.9l-2.2-7.8c2.7-1.5 8-3.4 15.1-3.4 13 0 17.1 7.6 17.1 16.8v13.5c0 3.7.2 7.3.6 9.5h-11zm-1.5-18.4c-6.4-.1-11.3 1.4-11.3 6.1 0 3.1 2.1 4.6 4.8 4.6 3 0 5.5-2 6.3-4.4.2-.6.2-1.4.2-2.1v-4.2zm21.3-8.1c0-4.9-.2-9-.3-12.4h10.2l.6 5.2h.2c1.7-2.5 5.1-6.1 11.8-6.1 5 0 9 2.5 10.6 6.6h.2c1.4-2 3.2-3.6 5-4.7 2.1-1.3 4.5-1.9 7.4-1.9 7.5 0 13.1 5.2 13.1 16.8v23h-11.8v-21.1c0-5.6-1.8-8.9-5.7-8.9-2.8 0-4.8 1.9-5.6 4.2-.3.9-.5 2.1-.5 3.1V597h-11.8v-21.8c0-4.9-1.7-8.3-5.6-8.3-3.1 0-4.9 2.4-5.6 4.4-.4 1-.5 2.1-.5 3V597h-11.8v-26.5zm106.8 6.6c0 14.2-10.1 20.7-20.5 20.7-11.4 0-20.1-7.5-20.1-20 0-12.6 8.3-20.6 20.7-20.6 12 .1 19.9 8.3 19.9 19.9zm-28.1.4c0 6.7 2.8 11.7 7.9 11.7 4.7 0 7.7-4.7 7.7-11.7 0-5.8-2.2-11.7-7.7-11.7-5.8 0-7.9 6-7.9 11.7zm35.3 19.5c.2-2.5.3-7.2.3-11.6v-44.8h12.1v22.2h.2c2.3-3.3 6.4-5.5 11.8-5.5 9.3 0 16.1 7.7 16.1 19.6 0 14-8.9 21-17.8 21-4.5 0-8.9-1.7-11.7-6.3h-.2l-.5 5.4h-10.3zm12.4-16.5c0 .8.1 1.5.2 2.1.8 3.3 3.6 5.7 7.1 5.7 5.2 0 8.3-4 8.3-11 0-6-2.7-10.8-8.3-10.8-3.3 0-6.3 2.5-7.1 6-.2.7-.2 1.4-.2 2.2v5.8zm48-33.2c0 3.3-2.5 6-6.5 6-3.8 0-6.4-2.7-6.3-6-.1-3.5 2.5-6.1 6.4-6.1 3.8 0 6.3 2.6 6.4 6.1zM621.8 597v-38.9h12.1V597h-12.1zm21.8-56.4h12.1V597h-12.1v-56.4zm31.1 40.8c.4 5 5.3 7.4 11 7.4 4.1 0 7.5-.6 10.7-1.6l1.6 8.2c-4 1.6-8.8 2.4-14.1 2.4-13.2 0-20.7-7.6-20.7-19.8 0-9.9 6.1-20.7 19.6-20.7 12.6 0 17.3 9.8 17.3 19.4 0 2.1-.2 3.9-.4 4.8h-25zm14.3-8.2c0-2.9-1.3-7.9-6.8-7.9-5.1 0-7.2 4.6-7.5 7.9H689z"/></svg>