<svg xmlns="http://www.w3.org/2000/svg" viewBox="0 0 900 900"><style>.st0{fill:#d10032}</style><circle class="st0" cx="451" cy="450" r="444"/><circle cx="463" cy="450" r="432.1" fill="#fff"/><path class="st0" d="M436.6 411.2c.6-.9.4-1.8.4-2.7v-14.8c-.1-3.5 3-7.1 6.9-7.1h6.6c2.5 0 4.9.1 7.4 0 5-.2 8.1 3.6 7.9 8.1-.1 4.3-.1 8.6-.1 12.9v2.5c0 .4.2.9.3 1.3.4.1.6.2.9.2h58c.4 0 .7-.1 1.2-.2.1-.7.3-1.4.3-2.1v-13.1c0-1 0-2 .1-3 .3-3.3 3.2-6.4 6.7-6.4h15.1c4.3 0 7 3.9 7 7v16.1c0 .4.1.9.2 1.2.8.7 1.7.5 2.5.5h34.8c.1.7.3 1.2.3 1.7v8.5c-.1 4.7-3 7.6-7.8 7.7-8 .1-16.1 0-24.1 0h-4.1c-.5 0-1.1.1-1.5.2-.5.9-.4 1.9-.4 2.8l-.3 47.1c0 2.7.2 5.5 1 8.1 1.6 5.3 4.9 8.8 10.2 10.5 2.9 1 5.9 1.2 8.9 1.2h15.1c.9 0 1.8 0 2.8.1.1.6.3 1 .3 1.4V511c0 2.1-.7 3.9-2.2 5.4-1.1 1.1-2.3 1.8-3.9 1.9-.8.1-1.6.1-2.5.1h-26c-5.2 0-10.2-1-14.8-3.4-8.4-4.4-14-11-16.4-20.2-.6-2.4-.8-4.9-.8-7.3V433c0-1.1 0-2.2-.1-3.2-1.1-.6-2.1-.4-3.1-.4h-54.5c-1 0-2-.2-3 .3-.4 1.1-.3 2.2-.3 3.2-.1 9.2-.1 18.4-.2 27.7 0 6-.1 12-.1 18.1 0 2.6.1 5.3.7 7.9 1.5 6 5 10 11 11.8 2.7.8 5.6 1.1 8.4 1.1h15.3c.8 0 1.6.1 2.4.1.2.4.3.6.3.9v11c0 1.6-.5 3-1.5 4.3-1.3 1.6-2.8 2.6-4.9 2.7-.5 0-1.1.1-1.6.1H468c-6.3 0-12.1-1.8-17.3-5.3-7.3-4.9-12-11.7-13.4-20.4-.3-1.7-.3-3.5-.3-5.2v-57.6c-.7-.1-1.3-.4-1.9-.4h-8.8c-2.1 0-3.9-.8-5.4-2.3-1.1-1.2-1.9-2.5-1.9-4.1-.1-3.6 0-7.3.1-10.9 0-.1.1-.1.3-.4.4 0 1.1-.1 1.7-.1H434c.9-.5 1.8-.3 2.6-.7zm192.7 62.6c-.8 6.7.7 12.6 5 17.7 4 4.7 9 7.3 15.2 7.7 1 .1 2 .1 3 .1h67.9c.7 0 1.4.1 2.2.1.1.5.2.8.2 1.1v10.4c0 2.1-.8 3.9-2.3 5.4-1.1 1-2.4 1.7-3.9 1.8-.9.1-1.8.1-2.7.1h-76.4c-5.7 0-11.1-.9-16.2-3.5-13.1-6.6-20.3-17.3-20.9-31.9-.4-10.3-.2-20.6 0-30.9.3-19.5 14.5-36.1 33.7-39.8 2.3-.4 4.7-.7 7.1-.7 15.1-.1 30.1-.1 45.2 0 19.5.1 36.6 14.8 40 34 .9 5.1.9 10.2.5 15.3-.5 6.4-6 11.7-12.3 12.4-1.5.2-3.1.2-4.6.2h-76.9c-1.4.2-2.6.1-3.8.5zm68.1-18.7c.1-2.9.2-5.4-.4-7.9-2.2-10.8-11.7-17.9-21.7-17.8-8.1.1-16.2 0-24.3.1-1.6 0-3.3.2-4.9.6-9.4 2-16.7 10.7-17 20.3-.1 3.6-.1 7.3-.1 10.9 0 .4.1.7.6.7 2.8-4.9 5.8-6.6 11.6-6.7H694c1-.1 2-.2 3.4-.2zm-383.1 18.7c-1.6 13.3 7.2 22.9 17.2 25 2 .4 4.2.5 6.3.5 17.7.1 35.4 0 53.1.1h14.8c.7 0 1.4.1 2.1.2.1.4.2.7.2.9v10.4c0 1.3-.3 2.5-.9 3.7-1.2 2.1-3 3.4-5.4 3.7-.9.1-1.8.1-2.7.1h-75.6c-3.7 0-7.3-.3-10.8-1.2-15.5-4.1-26.9-18.6-27-34.6-.1-10-.1-20.1 0-30.1.2-19.6 14.5-36.7 33.8-40.2 2.4-.4 4.9-.7 7.3-.7 14.8-.1 29.6-.1 44.4 0 19.9.1 37 14.7 40.4 34.3.8 4.9.9 9.8.5 14.7-.6 7.8-7.2 12.4-12.6 12.8-1.2.1-2.4.2-3.6.2h-78c-1.3-.1-2.4-.3-3.5.2zM382 455c.2-.3.3-.5.3-.6 0-1.2.1-2.4 0-3.6-.1-11.3-9.7-21.3-21.7-21.4-8.3-.1-16.6-.1-24.9 0-6.6.1-12 2.7-16.3 7.6-3.6 4.1-5.3 8.9-5.4 14.3v9.9c0 .2.2.4.4.9.4-.5.6-.9.8-1.2 1.5-2.7 3.8-4.3 6.8-5.2 1.7-.5 3.4-.5 5.2-.5h53.4c.4 0 1-.2 1.4-.2zM93.2 411.6h20c7.7-.1 13.2 3.7 16.9 10.2 3.1 5.6 6 11.3 9 16.9 8.3 15.7 16.7 31.4 25 47.1.4.7.8 1.4 1.4 2.3.5-.8.9-1.2 1.1-1.8 6.4-12 12.8-24 19.1-36 4.9-9.3 9.8-18.5 14.7-27.8 1.6-3.1 3.7-5.6 6.5-7.6 3.1-2.2 6.4-3.3 10.2-3.3h19.2c.4 0 .7.1 1 .1.5.9-.2 1.5-.5 2-4.5 8.5-9 16.9-13.5 25.4-12.6 23.7-25.1 47.4-37.7 71.1-.6 1-1.1 2.1-1.7 3.1-1.8 3.1-4.5 5-8.2 4.9h-20.8c-3.3 0-5.7-1.6-7.6-4.1-.5-.7-.8-1.4-1.2-2.1-17.2-32.4-34.4-64.8-51.5-97.2-.5-.9-1.2-1.7-1.4-3.2zm715.6 87.9v11.9c0 3.1-2.5 6.8-6.8 6.9h-27.9c-5.1 0-10-1-14.5-3.3-8.6-4.4-14.3-11.2-16.6-20.7-.6-2.3-.7-4.7-.7-7.1v-90.9c0-1.1 0-2.2.1-3.3.3-3.5 3.3-6.4 6.7-6.5 2.7 0 5.5 0 8.2-.1h6.3c4.7.1 7.4 2.9 7.5 7.5v4.4c-.2 21.6-.3 43.3-.5 64.9v16.2c0 2.7.3 5.5 1.1 8.1 1.6 5.2 4.9 8.6 10 10.4 3 1 6.1 1.3 9.2 1.3 5.1 0 10.2 0 15.3.1.8.1 1.6.1 2.6.2zm-540.6-34.6v46.6c0 3.3-3 6.7-6.6 6.8-.5 0-.9.1-1.4.1h-12.9c-1.2 0-2.4-.1-3.5-.6-2.6-1-4-3.1-4.4-5.8-.1-.8-.1-1.6-.1-2.5v-90.9c.1-2.9 2.6-6.7 6.6-6.8 1.1 0 2.2-.1 3.3-.1h11.5c4.8 0 7.5 4 7.4 7.5-.1 3 0 6 0 9 .1 12.2.1 24.5.1 36.7zm-28.7-56c0-.5-.1-1-.1-1.5v-17.2c0-.8 0-1.7.1-2.5.5-3.3 3.2-5.8 6.5-5.9 5.2-.1 10.4-.1 15.6 0 3.4.1 6.2 2.9 6.5 6.3.2 3.1.2 6.2 0 9.3-.2 3.4-2.8 5.9-6.1 6.4-.9.1-1.8.1-2.7.2h-7.7c-1.3 0-2.6 0-3.8.2-3 .3-5.6 1.5-7.4 4.1-.2.2-.3.4-.5.6h-.4z"/></svg>