<svg xmlns="http://www.w3.org/2000/svg" viewBox="0 0 900 900"><style>.st6{fill:#328ddd}</style><circle class="st6" cx="451" cy="450" r="444"/><circle cx="463" cy="450" r="432.1" fill="#fff"/><path d="M247 584.5 226.7 641H211l-20.2-56.5h16.5l11.7 41.6 12.1-41.6H247zm25.5-20.6v13.8h-14.9v-13.8h14.9zm-14.9 20.6h14.9V641h-14.9v-56.5zm81.8 17.4V641h-14.9v-34.4c0-3.1-.4-5.4-1.2-7-1.5-2.7-4.2-4-8.3-4-3.4 0-6.2 1.1-8.4 3.4s-3.3 5.5-3.3 9.5V641h-14.9v-56.5h14.2v8.3c1.7-2.7 3.5-4.7 5.3-6.2 3.2-2.4 7.1-3.6 11.9-3.6 5.8 0 10.4 1.6 13.9 4.7 3.8 3.4 5.7 8.1 5.7 14.2zm62.7 36.8v2.3h-14v-6.8c-2.3 2.4-4.5 4.2-6.6 5.4-3.4 1.9-7.3 2.9-11.7 2.9-4.7 0-8.7-1.3-11.8-3.8-3.6-3-5.4-7.2-5.4-12.7 0-5.2 1.6-9.4 4.7-12.6 2.8-2.8 6.6-4.6 11.7-5.4l13.4-1.9c2-.3 3.4-.9 4.2-1.6.8-.7 1.2-1.7 1.2-2.9 0-2.8-1.1-4.6-3.4-5.6-1.5-.7-3.6-1-6.4-1-3.3 0-5.7.9-7.2 2.6-1 1.1-1.6 2.9-1.9 5.2h-14.4c.8-7.9 3.7-13.3 8.9-16.4 3.8-2.2 9.2-3.4 16.3-3.4 5.7 0 10.5.9 14.3 2.8 5.5 2.8 8.2 7.3 8.2 13.5V630m-14.5-9.4v-7.2c-.8.7-1.9 1.3-3.3 1.7-1.4.4-3.7.9-6.9 1.4-3.2.5-5.6 1.3-7 2.3-2 1.3-3 3.4-3 6.3 0 2.3.8 4.1 2.3 5.3 1.3 1 2.8 1.5 4.5 1.5 3.5 0 6.5-1 9.3-3.1 2.7-2.1 4.1-4.8 4.1-8.2zm43.4-36.1v8.1c2-2.9 4-5.1 6-6.5 3-2 6.7-3.1 11.2-3.1 6.5 0 12 2.4 16.3 7.2 4.7 5.3 7.1 12.6 7.1 21.9 0 8.6-1.8 15.6-5.5 21-4.3 6.3-10.3 9.4-18.2 9.4-4.5 0-8.2-1.1-11.1-3.2-1.6-1.1-3.1-3-4.8-5.5l-.2 29.3H417v-78.6h14.1zm0 29.6c0 4.6 1 8.3 3 11.1 2.3 3.3 5.7 5 10.2 5 4.3 0 7.5-2 9.7-6 1.6-3 2.4-6.7 2.4-11 0-4.9-.9-8.9-2.7-12-2.2-3.6-5.5-5.4-9.8-5.4-4.7 0-8 1.9-10.2 5.6-1.7 3-2.6 7.3-2.6 12.7zm105.3-12.2V641h-14.9v-34.4c0-3.1-.4-5.4-1.2-7-1.5-2.7-4.2-4-8.3-4-3.4 0-6.2 1.1-8.4 3.4s-3.3 5.5-3.3 9.5V641h-14.9v-76.2h14.9v26.9c1-2.4 3.1-4.5 6.2-6.2 3.1-1.7 6.5-2.5 10.3-2.5 5.8 0 10.4 1.6 13.9 4.7 3.8 3.4 5.7 8.1 5.7 14.2zm71.9 10.9c0 9.7-2.9 17.2-8.7 22.5-5.2 4.8-11.9 7.3-20.2 7.3-8.1 0-14.8-2.4-20.1-7.3-5.9-5.4-8.8-12.9-8.8-22.5 0-9.7 2.9-17.2 8.7-22.5 5.2-4.8 11.9-7.2 20.2-7.2 8.2 0 14.9 2.4 20.2 7.2 5.8 5.3 8.7 12.8 8.7 22.5zm-15.3 0c0-4.7-.8-8.4-2.4-11.2-2.2-4-6-6-11.1-6s-8.8 2-11 5.9c-1.7 3-2.5 6.8-2.5 11.3 0 4.7.8 8.4 2.4 11.2 2.3 4 6 6 11.1 6s8.8-2 11-5.9c1.7-3 2.5-6.7 2.5-11.3zm76-10.9V641h-14.9v-34.4c0-3.1-.4-5.4-1.2-7-1.5-2.7-4.2-4-8.3-4-3.4 0-6.2 1.1-8.4 3.4s-3.3 5.5-3.3 9.5V641H618v-56.5h14.2v8.3c1.7-2.7 3.5-4.7 5.3-6.2 3.2-2.4 7.1-3.6 11.9-3.6 5.8 0 10.4 1.6 13.9 4.7 3.8 3.4 5.7 8.1 5.7 14.2zm50.3 22.6h15.3c-1.8 6.3-5.2 11-10.2 14.1-4.2 2.6-9.1 3.9-14.6 3.9-8.6 0-15.3-2.2-19.9-6.7-5.4-5.2-8.1-13.3-8.1-24.3 0-8.9 2.5-16 7.5-21.2 4.7-4.8 11.2-7.2 19.4-7.2 7.1 0 12.9 1.9 17.4 5.8 6.1 5.3 9.1 13.6 9.1 25.2v2.7h-38.6c.5 4.9 1.8 8.5 3.9 10.6 2.1 2.1 5.2 3.2 9.2 3.2 2.2 0 4.3-.5 6.1-1.6 1.9-1.1 3-2.6 3.5-4.5zM697 607.1h22.9c-.4-4.2-1.8-7.3-4.1-9.4-2-1.7-4.4-2.5-7.3-2.5-6.7-.1-10.6 3.9-11.5 11.9z" style="fill:#308be3"/><path class="st6" d="M385.9 256c-10-12.2-36.7-29.5-67.7-10.9-10.3 6.2-47.4 48.3-9.8 91.2 16.6 15.5 34.3 13.2 69.5 16 10.4.8 83.9 20.5 81.6 67.5.9 13.2 4.2 40.4-23.3 45.1-22.8 3.9-58.6 23.3-29.2 59.7 6.4 8.9 43.9 22.7 53-14.6 4.1-16.8-6.1-51.1 16.7-53.4 22.8-2.3 51.5 5.5 61.6-36 5.9-25.5 15.5-53.8 42.4-65.7 12.6-2.8 16.6 1.6 53.4-6.6 7.7-3.5 44.7-25.1 23.7-71.4-5.8-10.7-32.2-42.4-67.5-18.9-6.8 4.3-19.2 19.8-20.5 49-2.3 18.2-10 73.9-77.1 75.2-17.8-2.3-60-12.3-83.5-69.3-12.6-35.9-16.9-49-23.3-56.9z"/></svg>