<svg xmlns="http://www.w3.org/2000/svg" viewBox="0 0 898.8 901.1"><style>.st0{fill:#dc000b}.st1{fill:red}</style><path class="st0" d="M268.5 497.5c-12.2 6.6-27.5 2-34-10.2l-61-113.1c-6.6-12.2-2-27.5 10.2-34 12.2-6.6 27.5-2 34 10.2l61 113.1c6.5 12.1 2 27.4-10.2 34zm-69.8 0c-12.2 6.6-27.5 2-34-10.2l-61-113.1c-6.6-12.2-2-27.5 10.2-34 12.2-6.6 27.5-2 34 10.2l61 113.1c6.6 12.1 2 27.4-10.2 34z"/><path class="st1" d="M175.1 498c-12.2-6.4-17-21.7-10.6-33.9L224 350.2c6.4-12.2 21.7-17 33.9-10.6s17 21.7 10.6 33.9L209 487.4c-6.4 12.2-21.6 17-33.9 10.6zm69.8 0c-12.2-6.4-17-21.7-10.6-33.9l59.5-113.9c6.4-12.2 21.7-17 33.9-10.6s17 21.7 10.6 33.9l-59.5 113.9c-6.4 12.2-21.7 17-33.9 10.6zm69.6-.2c-12.2-6.4-17-21.7-10.6-33.9l32.6-62.4c6.4-12.2 21.7-17 33.9-10.6s17 21.7 10.6 33.9l-32.6 62.4c-6.4 12.2-21.7 17-33.9 10.6z"/><circle class="st1" cx="387.7" cy="359.7" r="23.4"/><path class="st0" d="M447.3 498c-12.2-6.4-17-21.7-10.6-33.9l59.5-113.9c6.4-12.2 21.7-17 33.9-10.6s17 21.7 10.6 33.9l-59.5 113.9c-6.4 12.2-21.6 17-33.9 10.6zm-63.3.2c-12.2-6.4-17-21.7-10.6-33.9l59.5-113.9c6.4-12.2 21.7-17 33.9-10.6s17 21.7 10.6 33.9l-59.5 113.9c-6.4 12.2-21.6 17-33.9 10.6z"/><path class="st1" d="M452.4 501.2c-13.8-.3-24.9-11.8-24.6-25.6l2.2-113.7c.3-13.8 11.8-24.9 25.6-24.6 13.8.3 24.9 11.8 24.6 25.6L478 476.5c-.2 13.8-11.8 24.9-25.6 24.7zm101.2-147.5s2.9-17 20.3-17c17.4 0 19 17.8 19 17.8v21.9h14s13.8 1.4 13.8 17.9c0 12.6-14.3 15.7-14.3 15.7H593v42.2s-2.8 11.2 9.1 13.2c6.8.1 19.4-1.2 19.4 18.3 0 18.7-27.7 16.3-27.7 16.3l-10.1-.2s-30.1-.6-30.1-31.7V353.7zm222.2 145.7c-12.9 0-23.3-10.4-23.3-23.3V360.5c0-12.9 10.4-23.3 23.3-23.3s23.3 10.4 23.3 23.3v115.6c0 12.8-10.4 23.3-23.3 23.3z"/><path d="M722.3 453.6c24.2-1.8 19.5-24.6 17.4-32.9-8.9-36-44.3-40.8-55.6-40.9-43.8.2-57.7 28.2-61.4 40-9.4 29.4 3.9 52.8 9.9 59.4 25.7 28.5 58.9 20.6 69.7 19.1 27.6-3.7 25-20.6 25-20.6 0-18.2-18.9-14.6-21.1-13.8s-9.2 3.1-21.3 3.7c-19.7-.8-21.6-14.4-21.6-14.4s34.7.6 59 .4zm-61-24.4s2.3-14.7 19.7-14.7c15.6 0 18.6 14.7 18.6 14.7h-38.3z" fill="#353535"/><path d="M339.2 546.3v15.2c-4.4 2-9 2.9-13.7 2.9-5.4 0-10-1.7-13.6-5-3.6-3.4-5.5-7.7-5.5-13.1 0-5.4 1.9-9.9 5.6-13.4 3.6-3.5 8.2-5.2 13.6-5.2 3.7 0 7.9 1 12.8 3v5.2c-4.3-2.3-8.6-3.5-12.9-3.5-3.9 0-7.2 1.3-9.8 3.9-2.6 2.6-4 5.9-4 9.8 0 4.1 1.4 7.4 4.2 9.9 2.7 2.5 6.1 3.7 10.3 3.7 2.2 0 4.8-.5 7.8-1.4v-7.4h-6.9v-4.6h12.1zm22.5-13.1c0 .8-.3 1.4-.8 2-.5.5-1.2.8-2 .8s-1.4-.3-2-.8c-.5-.5-.8-1.2-.8-2s.3-1.4.8-2c.5-.5 1.2-.8 2-.8s1.4.3 2 .8c.5.6.8 1.2.8 2zm-.5 7.2V564h-4.7v-23.6h4.7zm24.8 24-10.7-24.1h5.1l6.4 14.6 6.2-14.6h5l-10.4 24.1H386zm45.7-7.3v4.5c-2.8 1.9-5.9 2.8-9.4 2.8s-6.3-1.2-8.4-3.7c-2-2.4-3-5.3-3-8.8 0-3.4 1-6.3 3-8.6s4.7-3.4 8.1-3.4c3.6 0 6.3 1.3 8 3.9 1.5 2.2 2.2 5.3 2.2 9h-16.6c.7 4.7 3.4 7.1 7.9 7.1 2.5.1 5.3-.9 8.2-2.8zm-16.1-7.3h11.9c-.1-1.8-.6-3.2-1.5-4.2-.9-1.1-2.3-1.6-4-1.6-3.6-.1-5.7 1.9-6.4 5.8zm69.7-9.3 9.7-12.3h6.2L487.9 545v18.9h-5.1v-19l-13.3-16.8h6.2l9.6 12.4zm40.7-.6c3.6 0 6.7 1.1 9.1 3.3 2.4 2.2 3.7 5.1 3.7 8.7 0 3.7-1.2 6.8-3.5 9.1-2.4 2.3-5.4 3.4-9.2 3.4-3.6 0-6.6-1.2-9-3.5-2.3-2.3-3.5-5.3-3.5-9 0-3.5 1.2-6.3 3.6-8.6 2.4-2.3 5.3-3.4 8.8-3.4zm0 4.2c-2.2 0-4.1.7-5.5 2.2-1.4 1.5-2.1 3.4-2.1 5.6 0 2.4.7 4.4 2 5.9 1.4 1.6 3.2 2.4 5.6 2.4 2.5 0 4.5-.7 5.9-2.2s2.1-3.5 2.1-6c0-2.3-.8-4.2-2.3-5.7s-3.4-2.2-5.7-2.2zm48.2 19.8h-4.7v-3c-2.1 2.3-4.5 3.5-7 3.5-2.7 0-4.7-.9-6.1-2.8-1.3-1.7-2-3.9-2-6.6v-14.7h4.7v15c0 3.5 1.6 5.2 4.8 5.2 2.2 0 4-1.1 5.6-3.3v-16.9h4.7v23.6zm42.5-35.8h11.2c3.4 0 6.1.9 8.1 2.6 2.2 1.8 3.3 4.4 3.3 7.7 0 3.4-1.2 5.9-3.6 7.7-2.1 1.5-5 2.3-8.5 2.3h-5.4v15.5h-5.1v-35.8zm5.2 4.6v11.1h5.8c1.9 0 3.4-.5 4.5-1.4 1.2-1 1.8-2.4 1.8-4.2 0-1.8-.6-3.1-1.7-4.1-1.1-.9-2.6-1.4-4.4-1.4h-6zm42.8 7.2c3.6 0 6.7 1.1 9.1 3.3 2.4 2.2 3.7 5.1 3.7 8.7 0 3.7-1.2 6.8-3.5 9.1-2.4 2.3-5.4 3.4-9.2 3.4-3.6 0-6.6-1.2-9-3.5-2.3-2.3-3.5-5.3-3.5-9 0-3.5 1.2-6.3 3.6-8.6 2.4-2.3 5.3-3.4 8.8-3.4zm-.1 4.2c-2.2 0-4.1.7-5.5 2.2-1.4 1.5-2.1 3.4-2.1 5.6 0 2.4.7 4.4 2 5.9 1.4 1.6 3.2 2.4 5.6 2.4 2.5 0 4.5-.7 5.9-2.2s2.1-3.5 2.1-6c0-2.3-.8-4.2-2.3-5.7s-3.3-2.2-5.7-2.2zm45.9-3.7 6 14.3 6.1-14.3h5l-10.4 24.1h-1.4l-7-16.4-6.9 16.4h-1.5l-10.5-24.1h5l6.2 14.3 6-14.3h3.4zm50.6 16.7v4.5c-2.8 1.9-5.9 2.8-9.4 2.8s-6.3-1.2-8.4-3.7c-2-2.4-3-5.3-3-8.8 0-3.4 1-6.3 3-8.6s4.7-3.4 8.1-3.4c3.6 0 6.3 1.3 8 3.9 1.5 2.2 2.2 5.3 2.2 9H745c.7 4.7 3.4 7.1 7.9 7.1 2.6.1 5.3-.9 8.2-2.8zm-16-7.3H757c-.1-1.8-.6-3.2-1.5-4.2-.9-1.1-2.3-1.6-4-1.6-3.6-.1-5.8 1.9-6.4 5.8zm32.3-9.4h4.7v5.4c2.3-3.9 4.6-5.9 6.9-5.9 1.8 0 3.7.9 5.7 2.7l-2.5 4c-1.6-1.5-3.1-2.3-4.4-2.3-1.8 0-3.2.8-4.3 2.4-.9 1.4-1.4 3-1.4 4.9v12.3h-4.7v-23.5z"/><circle cx="453.6" cy="451.6" r="435.6" fill="none" stroke="#dc000b" stroke-width="9" stroke-miterlimit="10"/></svg>